<svg xmlns="http://www.w3.org/2000/svg" width="980" height="460" viewBox="0 0 980 460">
<rect width="980" height="460" fill="#ffffff"/>
<text x="28.0" y="34.0" font-family="Arial, Helvetica, sans-serif" font-size="21" fill="#1f2933" text-anchor="start" font-weight="700">Figure 8. Peak-normalized joint and TCP speed envelopes</text>
<text x="28.0" y="56.0" font-family="Arial, Helvetica, sans-serif" font-size="13" fill="#52616b" text-anchor="start" font-weight="400">Measured log: 20260428_162300/motion_characterization.csv. Curves are normalized separately; physical units are reported at right.</text>
<rect x="78" y="78" width="602" height="318" fill="#fbfdff" stroke="#d9e2ec"/>
<line x1="78.0" y1="78" x2="78.0" y2="396" stroke="#d9e2ec"/>
<line x1="78" y1="78.0" x2="680" y2="78.0" stroke="#d9e2ec"/>
<text x="78.0" y="416.0" font-family="Arial, Helvetica, sans-serif" font-size="11" fill="#52616b" text-anchor="middle" font-weight="400">0.0</text>
<text x="70.0" y="82.0" font-family="Arial, Helvetica, sans-serif" font-size="11" fill="#52616b" text-anchor="end" font-weight="400">1.0</text>
<line x1="198.4" y1="78" x2="198.4" y2="396" stroke="#d9e2ec"/>
<line x1="78" y1="141.6" x2="680" y2="141.6" stroke="#d9e2ec"/>
<text x="198.4" y="416.0" font-family="Arial, Helvetica, sans-serif" font-size="11" fill="#52616b" text-anchor="middle" font-weight="400">5.1</text>
<text x="70.0" y="145.6" font-family="Arial, Helvetica, sans-serif" font-size="11" fill="#52616b" text-anchor="end" font-weight="400">0.8</text>
<line x1="318.8" y1="78" x2="318.8" y2="396" stroke="#d9e2ec"/>
<line x1="78" y1="205.2" x2="680" y2="205.2" stroke="#d9e2ec"/>
<text x="318.8" y="416.0" font-family="Arial, Helvetica, sans-serif" font-size="11" fill="#52616b" text-anchor="middle" font-weight="400">10.1</text>
<text x="70.0" y="209.2" font-family="Arial, Helvetica, sans-serif" font-size="11" fill="#52616b" text-anchor="end" font-weight="400">0.6</text>
<line x1="439.2" y1="78" x2="439.2" y2="396" stroke="#d9e2ec"/>
<line x1="78" y1="268.8" x2="680" y2="268.8" stroke="#d9e2ec"/>
<text x="439.2" y="416.0" font-family="Arial, Helvetica, sans-serif" font-size="11" fill="#52616b" text-anchor="middle" font-weight="400">15.2</text>
<text x="70.0" y="272.8" font-family="Arial, Helvetica, sans-serif" font-size="11" fill="#52616b" text-anchor="end" font-weight="400">0.4</text>
<line x1="559.6" y1="78" x2="559.6" y2="396" stroke="#d9e2ec"/>
<line x1="78" y1="332.4" x2="680" y2="332.4" stroke="#d9e2ec"/>
<text x="559.6" y="416.0" font-family="Arial, Helvetica, sans-serif" font-size="11" fill="#52616b" text-anchor="middle" font-weight="400">20.3</text>
<text x="70.0" y="336.4" font-family="Arial, Helvetica, sans-serif" font-size="11" fill="#52616b" text-anchor="end" font-weight="400">0.2</text>
<line x1="680.0" y1="78" x2="680.0" y2="396" stroke="#d9e2ec"/>
<line x1="78" y1="396.0" x2="680" y2="396.0" stroke="#d9e2ec"/>
<text x="680.0" y="416.0" font-family="Arial, Helvetica, sans-serif" font-size="11" fill="#52616b" text-anchor="middle" font-weight="400">25.3</text>
<text x="70.0" y="400.0" font-family="Arial, Helvetica, sans-serif" font-size="11" fill="#52616b" text-anchor="end" font-weight="400">0.0</text>
<polyline points="78.0,384.3 78.6,387.7 79.2,384.2 79.8,396.0 80.4,381.6 81.0,387.7 81.6,384.2 82.2,387.7 82.8,387.7 83.4,384.3 84.0,381.6 84.6,387.7 85.2,387.7 85.8,387.7 86.4,384.2 87.0,387.7 87.6,384.2 88.2,388.7 88.8,384.3 89.4,384.2 90.0,384.2 90.6,396.0 91.2,384.2 91.8,387.7 92.4,387.7 93.0,387.7 93.6,379.4 94.2,387.7 94.9,388.2 95.5,396.0 96.0,384.2 96.6,384.2 97.2,396.0 97.8,396.0 98.4,387.7 99.0,396.0 99.6,396.0 100.2,384.2 100.8,387.7 101.4,384.2 102.0,396.0 102.7,396.0 103.3,396.0 103.9,387.7 104.0,396.0 104.6,396.0 105.2,387.7 105.8,396.0 106.5,388.5 107.1,396.0 107.7,388.0 108.3,381.6 108.9,381.6 109.6,376.9 110.2,384.2 110.8,367.2 111.4,375.6 112.0,374.0 112.6,375.6 113.2,345.4 113.8,374.0 114.4,353.6 115.0,359.8 115.6,364.9 116.2,349.0 116.8,359.8 117.4,339.7 118.0,358.9 118.6,328.5 119.2,357.9 119.8,337.9 120.3,350.5 120.9,319.4 121.5,344.8 122.1,319.4 122.7,341.6 123.3,316.7 123.9,336.7 124.5,310.0 125.1,335.5 125.7,298.4 126.3,328.5 126.9,292.6 127.5,332.7 128.1,288.6 128.8,268.7 129.4,356.1 130.0,250.4 130.6,356.2 131.2,236.7 131.8,355.3 132.4,232.1 133.1,281.2 133.7,299.5 134.3,261.6 134.9,309.6 135.5,251.5 136.1,302.7 136.7,247.1 137.3,300.9 137.9,242.0 138.5,289.6 139.0,238.7 139.6,289.6 140.2,233.8 140.8,282.4 141.4,221.7 142.0,279.9 142.6,284.5 143.2,222.2 143.8,267.3 144.4,153.8 145.0,271.3 145.6,270.5 146.2,261.4 146.8,133.8 147.4,263.8 148.0,252.3 148.6,195.4 149.2,247.3 149.8,254.2 150.4,182.1 151.1,120.0 151.7,243.2 152.3,178.4 152.9,246.7 153.5,237.6 154.1,166.5 154.7,247.2 155.3,236.0 155.9,93.2 156.5,243.2 157.1,239.2 157.7,128.3 158.3,245.0 158.9,167.7 159.5,242.6 160.1,177.7 160.7,245.7 161.3,172.7 161.9,242.5 162.5,170.8 163.1,252.3 163.8,186.5 164.4,252.5 165.0,194.0 165.6,248.0 166.3,127.7 166.9,320.3 167.5,107.0 168.1,319.0 168.7,99.4 169.3,323.1 169.9,94.9 170.5,184.1 171.1,248.3 171.7,171.1 172.3,248.1 172.9,165.0 173.5,247.3 174.1,172.8 174.7,240.6 175.3,164.0 175.9,251.8 176.5,166.2 177.1,237.6 177.7,164.6 178.3,243.5 178.9,166.4 179.5,236.2 180.1,166.8 180.7,244.3 181.3,154.4 181.9,235.2 182.5,167.7 183.1,241.2 183.7,234.9 184.3,106.8 184.9,226.5 185.5,247.3 186.1,245.9 186.7,84.7 187.3,248.2 187.9,237.6 188.5,118.0 189.1,321.6 189.7,96.7 190.3,242.6 190.9,242.7 191.5,249.7 192.1,97.0 192.7,318.5 193.3,101.9 193.9,244.8 194.5,163.6 195.1,256.7 195.7,165.8 196.3,248.2 196.9,173.4 197.5,245.0 198.1,172.2 198.7,248.3 199.3,172.7 199.9,255.8 200.5,242.9 201.1,116.6 201.7,244.0 202.3,167.6 202.9,250.2 203.5,160.9 204.1,246.8 204.7,172.8 205.3,240.5 205.9,240.3 206.6,131.7 207.2,245.3 207.8,240.0 208.4,241.2 209.0,90.4 209.6,244.6 210.2,242.9 210.8,166.4 211.4,245.2 212.0,157.1 212.6,241.4 213.2,157.0 213.8,242.8 214.4,168.9 215.0,232.0 215.6,170.5 216.2,237.9 216.8,121.5 217.4,241.8 218.0,168.2 218.6,250.0 219.2,243.0 219.8,115.1 220.4,241.2 221.1,182.7 221.7,242.1 222.3,173.5 222.9,244.1 223.5,248.3 224.0,245.2 224.6,169.4 225.2,256.2 225.8,90.0 226.4,323.6 227.0,101.4 227.6,240.7 228.2,250.5 228.9,113.4 229.5,246.5 230.1,252.2 230.7,244.0 231.2,97.1 231.8,249.7 232.4,240.7 233.0,251.8 233.6,90.7 234.2,242.8 234.8,250.2 235.4,244.1 236.0,85.7 236.6,252.0 237.2,242.9 237.9,116.7 238.5,243.1 239.1,242.1 239.7,247.8 240.3,94.1 240.9,235.7 241.5,243.0 242.1,230.0 242.7,99.4 243.3,235.1 243.9,236.8 244.5,118.0 245.1,242.8 245.7,165.0 246.3,245.0 246.9,242.7 247.5,174.8 248.1,228.9 248.8,138.1 249.4,245.1 250.0,244.4 250.6,241.0 251.2,97.3 251.9,199.8 252.5,242.6 253.1,185.7 253.7,244.9 254.3,173.7 254.9,254.2 255.5,238.5 256.1,181.5 256.7,249.7 257.3,97.0 257.9,320.3 258.5,96.2 259.1,255.0 259.7,246.6 260.4,183.5 261.0,255.9 261.6,126.0 262.2,323.0 263.1,186.8 263.7,165.7 264.5,237.3 265.4,187.5 266.1,265.2 267.1,210.3 267.7,164.6 268.3,107.9 269.1,278.6 269.8,202.2 270.5,200.7 271.1,87.3 271.7,241.9 272.3,166.3 272.9,239.4 273.5,164.6 274.1,233.2 274.7,243.2 275.4,120.2 276.0,245.4 276.6,237.4 277.2,245.5 277.8,85.0 278.4,243.3 279.0,247.2 279.6,158.9 280.2,249.2 280.8,109.6 281.4,246.7 282.0,247.7 282.6,246.7 283.2,91.2 283.8,319.0 284.4,104.5 285.0,239.8 285.6,173.5 286.2,245.0 286.8,170.2 287.4,250.0 288.0,173.3 288.6,245.3 289.2,173.4 289.8,247.6 290.4,175.3 291.0,247.4 291.6,167.7 292.2,250.1 292.7,170.7 293.3,254.0 293.9,171.9 294.5,244.2 295.1,171.7 295.7,235.7 296.3,173.5 296.9,251.5 297.5,163.8 298.1,242.9 298.7,166.6 299.3,244.3 299.9,172.5 300.5,241.8 301.1,173.9 301.7,242.1 302.3,162.7 302.9,238.1 303.5,165.8 304.1,240.0 304.7,159.4 305.3,244.5 305.9,159.3 306.5,244.3 307.1,157.5 307.7,244.6 308.3,162.2 308.9,244.6 309.5,168.4 310.1,242.5 310.7,117.1 311.3,250.5 311.9,241.3 312.6,113.8 313.2,251.7 313.8,242.3 314.4,170.9 315.0,240.5 315.6,256.2 316.2,162.2 316.8,249.9 317.4,106.8 318.0,313.7 318.6,96.8 319.1,244.3 319.7,248.2 320.3,177.1 320.9,238.7 321.6,139.5 322.2,252.4 322.8,240.3 323.4,258.2 324.0,90.0 324.6,250.4 325.2,162.2 325.8,252.3 326.4,159.3 327.0,244.7 327.6,175.8 328.2,242.7 328.8,174.0 329.4,241.2 330.0,166.8 330.6,243.1 331.2,249.2 331.8,168.6 332.4,243.1 333.0,166.1 333.6,245.1 334.2,158.5 334.8,240.7 335.4,165.7 336.0,237.7 336.6,164.4 337.2,246.7 337.8,89.0 338.4,319.4 339.0,96.4 339.6,254.2 340.2,252.4 340.8,152.2 341.4,263.0 342.0,192.8 342.6,263.1 343.2,268.7 343.9,209.8 344.5,207.8 345.1,220.3 345.7,275.3 346.3,276.4 346.9,277.3 347.5,157.4 348.1,284.6 348.7,225.9 349.3,285.0 349.9,291.0 350.5,228.7 351.1,300.5 351.7,208.7 352.3,300.5 352.9,295.3 353.5,299.0 354.1,204.7 354.7,302.4 355.3,307.5 356.0,234.9 356.6,357.0 357.2,219.7 357.8,310.1 358.4,282.4 359.0,313.3 359.6,315.8 360.3,262.5 360.9,329.0 361.5,313.8 362.1,329.1 362.7,259.2 363.3,330.1 363.9,330.5 364.6,279.8 365.2,339.1 365.8,306.3 366.4,338.5 367.0,344.7 367.7,297.1 368.2,349.0 368.8,316.7 369.4,348.3 370.0,352.8 370.7,311.0 371.3,377.8 371.9,318.5 372.5,375.6 373.1,317.1 373.7,366.0 374.3,357.1 375.0,342.1 375.5,366.0 376.1,367.2 376.7,372.5 377.3,346.8 377.9,379.4 378.5,358.8 379.1,377.4 379.7,374.0 380.3,381.6 380.9,367.2 381.5,379.4 382.1,377.4 382.7,384.3 383.3,387.7 384.0,377.2 384.6,384.2 385.2,396.0 385.8,384.2 386.4,384.2 387.0,381.6 387.6,381.6 388.1,381.6 388.8,381.9 389.4,396.0 390.0,396.0 390.6,396.0 391.2,381.6 391.8,381.6 392.4,387.7 393.0,384.3 393.3,396.0 393.9,384.3 394.5,384.2 395.1,384.3 395.7,387.7 396.3,381.6 396.9,387.8 397.6,383.6 398.2,384.2 398.8,375.6 399.4,377.4 400.0,366.0 400.6,379.4 401.2,360.7 401.7,374.0 402.3,358.8 402.9,374.0 403.5,349.0 404.1,364.9 404.7,351.2 405.3,366.0 405.9,341.0 406.5,356.1 407.1,334.9 407.7,356.1 408.3,355.3 408.9,309.6 409.5,346.1 410.1,324.5 410.7,341.5 411.3,348.3 412.0,296.1 412.5,339.7 413.2,310.4 413.8,329.5 414.4,337.3 415.0,333.3 415.6,262.0 416.2,366.2 416.8,259.6 417.4,322.6 418.0,329.0 418.6,248.3 419.2,318.5 419.8,319.4 420.4,312.0 421.0,237.1 421.6,305.0 422.2,312.1 422.8,307.3 423.4,212.7 424.0,310.0 424.6,296.3 425.2,248.0 425.8,303.5 426.4,217.3 427.0,289.5 427.6,290.8 428.2,289.4 428.8,182.0 429.4,279.9 430.0,290.9 430.6,282.3 431.2,173.5 431.8,273.2 432.4,214.4 433.0,277.9 433.6,208.1 434.2,259.5 434.8,276.7 435.4,148.7 436.0,270.8 436.6,186.1 437.2,259.7 437.8,182.0 438.4,256.8 439.0,256.5 439.6,175.4 440.2,253.9 440.8,235.9 441.4,104.6 442.0,321.6 442.6,87.7 443.2,242.7 443.8,244.6 444.5,127.4 445.1,249.9 445.7,241.0 446.4,135.8 447.0,252.2 447.6,238.1 448.2,243.1 448.8,104.0 449.4,241.4 450.0,171.5 450.6,249.3 451.2,243.4 451.8,178.7 452.4,177.7 453.0,250.1 453.6,240.7 454.2,175.8 454.8,250.2 455.4,96.3 456.0,319.4 456.6,111.4 457.2,242.1 457.8,173.8 458.4,242.9 459.0,247.5 459.6,105.3 460.2,322.6 460.8,167.3 461.4,163.6 462.0,253.4 462.6,233.5 463.2,96.6 463.8,240.3 464.4,165.9 465.0,244.6 465.6,243.2 466.2,245.3 466.8,80.8 467.4,250.2 468.0,235.0 468.6,159.1 469.2,242.5 469.8,110.1 470.4,315.0 471.0,81.2 471.6,240.9 472.2,246.9 472.8,164.1 473.4,242.8 474.0,243.0 474.6,87.1 475.2,242.3 475.8,251.8 476.4,251.7 477.0,93.9 477.6,246.7 478.2,169.7 478.8,252.5 479.4,246.8 480.1,153.7 480.8,186.4 481.4,241.0 482.0,169.2 482.6,251.6 483.2,246.6 483.8,246.6 484.4,96.6 485.0,244.6 485.6,247.8 486.2,120.0 486.8,244.8 487.4,251.2 488.0,242.7 488.6,92.8 489.2,326.5 489.8,101.0 490.4,241.0 491.0,244.4 491.6,179.8 492.2,170.7 492.8,162.2 493.4,249.3 494.0,240.8 494.6,172.7 495.3,260.2 496.0,201.2 496.8,137.5 497.4,257.1 498.1,117.8 498.7,324.9 499.4,138.2 500.2,276.7 501.1,180.7 501.7,178.4 502.4,134.7 503.2,276.9 504.1,147.9 504.7,239.5 505.4,123.8 506.0,237.7 506.6,177.0 507.2,244.2 507.8,175.9 508.4,246.9 509.0,174.8 509.6,244.3 510.2,245.7 510.8,173.4 511.4,245.2 512.1,131.1 512.7,247.4 513.3,239.4 513.9,252.5 514.4,171.0 515.0,252.5 515.6,175.4 516.2,238.5 516.8,105.1 517.4,252.5 518.0,238.6 518.7,117.6 519.3,252.4 519.9,242.5 520.5,247.1 521.1,95.4 521.7,248.2 522.3,164.7 522.9,240.9 523.5,246.6 524.0,241.0 524.7,103.4 525.3,240.5 525.8,170.7 526.4,240.5 527.0,235.3 527.7,111.3 528.3,245.0 528.9,233.1 529.5,243.0 530.1,89.5 530.7,232.1 531.3,250.1 531.9,236.0 532.5,166.3 533.1,245.0 533.7,82.5 534.3,240.0 534.9,166.0 535.5,242.6 536.1,242.2 536.7,243.8 537.3,97.7 537.9,181.4 538.5,252.6 539.1,238.7 539.7,251.6 540.3,106.5 540.9,238.2 541.5,246.8 542.1,250.1 542.7,95.1 543.3,245.1 543.9,180.4 544.5,245.3 545.1,249.1 545.7,173.9 546.3,244.5 546.9,130.5 547.5,239.0 548.1,250.5 548.7,249.5 549.3,99.9 549.9,251.7 550.5,239.0 551.2,130.5 551.8,239.9 552.4,252.7 553.0,240.6 553.6,86.4 554.2,249.0 554.8,164.7 555.4,247.1 556.0,238.5 556.6,115.5 557.2,244.1 557.8,241.2 558.4,242.3 559.0,163.7 559.6,237.2 560.2,90.0 560.8,317.1 561.4,90.6 562.0,234.8 562.6,242.1 563.2,240.6 563.8,83.2 564.5,201.8 565.1,240.8 565.7,162.1 566.3,246.0 566.9,242.5 567.6,140.4 568.2,254.7 568.8,237.2 569.5,130.4 570.1,247.5 570.7,249.4 571.3,241.3 571.9,171.8 572.5,252.3 573.1,98.2 573.7,238.8 574.3,174.9 574.9,250.4 575.4,174.9 576.0,240.8 576.6,249.2 577.2,174.1 577.8,246.3 578.5,122.8 579.1,248.3 579.7,165.1 580.3,250.8 580.9,167.2 581.5,247.9 582.1,175.0 582.7,241.7 583.3,168.2 583.9,240.5 584.5,171.3 585.1,243.6 585.7,243.0 586.3,100.0 586.9,320.8 587.5,93.7 588.1,317.2 588.7,85.8 589.3,326.5 589.9,78.0 590.5,319.0 591.1,89.6 591.7,319.0 592.3,84.3 592.9,179.7 593.5,241.2 594.1,162.4 594.7,250.3 595.3,162.4 595.9,233.4 596.5,172.8 597.1,244.8 597.7,168.1 598.3,234.6 598.9,174.2 599.5,245.0 600.1,174.0 600.7,249.5 601.3,175.7 601.9,244.4 602.5,245.9 603.1,108.4 603.7,249.7 604.3,179.3 604.9,252.4 605.5,238.6 606.1,173.6 606.7,247.0 607.3,251.3 607.9,97.0 608.5,246.9 609.1,173.5 609.7,250.1 610.3,171.8 610.9,243.1 611.5,175.4 612.1,242.7 612.7,170.9 613.3,242.5 613.9,172.5 614.5,243.0 615.1,165.6 615.7,250.1 616.3,159.0 616.8,249.9 617.4,166.3 618.0,237.1 618.6,171.8 619.2,242.1 619.8,161.9 620.4,242.0 621.0,164.6 621.6,242.1 622.2,245.1 622.8,78.3 623.4,246.6 624.0,165.5 624.6,231.7 625.2,245.0 625.9,134.4 626.5,245.0 627.1,167.5 627.7,248.0 628.3,181.9 628.9,252.3 629.5,252.4 630.1,140.0 630.7,320.3 631.3,136.3 631.9,334.9 632.5,146.2 633.1,268.4 633.7,267.5 634.3,275.2 634.9,152.6 635.5,277.9 636.1,277.8 636.8,191.8 637.4,279.1 638.0,279.9 638.6,291.6 639.2,240.0 639.8,286.7 640.4,187.1 641.0,293.9 641.6,297.0 642.2,298.0 642.8,201.7 643.4,303.5 644.0,300.9 644.6,241.1 645.2,348.3 645.8,218.0 646.4,303.9 647.0,320.7 647.6,272.2 648.2,315.0 648.8,321.2 649.4,243.8 650.0,318.9 650.6,291.1 651.2,316.3 651.8,299.0 652.4,330.0 653.0,293.2 653.6,328.9 654.2,302.3 654.8,339.6 655.4,335.5 656.0,310.0 656.6,339.6 657.2,315.0 657.8,346.1 658.4,299.8 659.0,372.5 659.6,301.5 660.2,358.8 660.8,331.6 661.4,361.7 662.0,331.7 662.6,361.7 663.2,344.7 663.8,367.3 664.4,346.8 665.0,360.4 665.6,371.0 666.2,358.8 666.8,377.4 667.4,366.0 668.0,372.5 668.6,377.5 669.2,374.0 669.8,375.6 670.4,384.2 671.0,372.5 671.6,396.0 672.2,384.2 672.8,385.3 673.4,384.2 674.0,396.0 674.6,396.0 675.2,396.0 675.8,384.2 676.4,384.2 677.0,381.6 677.6,384.2 678.2,381.6 678.8,384.2 679.4,396.0 680.0,384.2" fill="none" stroke="#7b61ff" stroke-width="2.5"/>
<line x1="90" y1="96" x2="114" y2="96" stroke="#7b61ff" stroke-width="3"/>
<text x="120.0" y="100.0" font-family="Arial, Helvetica, sans-serif" font-size="12" fill="#1f2933" text-anchor="start" font-weight="400">||dq/dt|| / peak</text>
<polyline points="78.0,387.5 78.6,396.0 79.2,378.0 79.8,396.0 80.4,364.4 81.0,387.5 81.6,375.1 82.2,387.5 82.8,387.5 83.4,387.5 84.0,375.1 84.6,387.5 85.2,376.8 85.8,376.8 86.4,375.0 87.0,376.8 87.6,375.0 88.2,396.0 88.8,387.5 89.4,387.5 90.0,387.5 90.6,396.0 91.2,387.5 91.8,396.0 92.4,387.5 93.0,396.0 93.6,396.0 94.2,396.0 94.9,388.1 95.5,396.0 96.0,387.5 96.6,387.5 97.2,396.0 97.8,396.0 98.4,387.5 99.0,396.0 99.6,396.0 100.2,387.5 100.8,387.5 101.4,387.5 102.0,396.0 102.7,396.0 103.3,396.0 103.9,387.5 104.0,396.0 104.6,396.0 105.2,387.5 105.8,396.0 106.5,388.4 107.1,396.0 107.7,391.2 108.3,380.2 108.9,376.5 109.6,379.4 110.2,382.4 110.8,365.4 111.4,380.0 112.0,376.9 112.6,369.0 113.2,382.3 113.8,369.0 114.4,364.9 115.0,377.5 115.6,358.5 116.2,383.8 116.8,366.4 117.4,350.8 118.0,377.8 118.6,349.5 119.2,373.4 119.8,356.6 120.3,373.9 120.9,356.9 121.5,347.8 122.1,357.0 122.7,375.8 123.3,324.1 123.9,374.2 124.5,339.4 125.1,348.0 125.7,342.0 126.3,349.9 126.9,358.5 127.5,353.4 128.1,323.1 128.8,321.4 129.4,371.1 130.0,294.6 130.6,362.1 131.2,307.8 131.8,352.7 132.4,299.7 133.1,333.7 133.7,350.5 134.3,304.7 134.9,327.2 135.5,328.5 136.1,341.6 136.7,303.0 137.3,339.1 137.9,312.8 138.5,334.9 139.0,297.1 139.6,329.4 140.2,292.3 140.8,337.4 141.4,307.5 142.0,326.5 142.6,331.7 143.2,282.8 143.8,337.9 144.4,261.6 145.0,323.0 145.6,329.6 146.2,323.3 146.8,248.7 147.4,317.4 148.0,315.2 148.6,312.4 149.2,312.2 149.8,327.2 150.4,271.3 151.1,272.6 151.7,301.7 152.3,270.7 152.9,330.8 153.5,313.1 154.1,271.9 154.7,305.8 155.3,305.3 155.9,256.6 156.5,286.1 157.1,326.9 157.7,261.8 158.3,320.4 158.9,260.2 159.5,303.3 160.1,295.5 160.7,294.9 161.3,285.0 161.9,307.5 162.5,272.9 163.1,317.5 163.8,288.9 164.4,317.7 165.0,288.1 165.6,288.5 166.3,250.2 166.9,374.0 167.5,224.0 168.1,361.6 168.7,222.1 169.3,366.9 169.9,221.1 170.5,311.8 171.1,289.7 171.7,294.1 172.3,288.5 172.9,288.7 173.5,316.8 174.1,286.8 174.7,312.5 175.3,277.0 175.9,312.1 176.5,271.3 177.1,314.2 177.7,258.9 178.3,341.7 178.9,271.3 179.5,346.4 180.1,253.1 180.7,341.8 181.3,268.8 181.9,317.8 182.5,285.9 183.1,291.9 183.7,327.6 184.3,240.5 184.9,324.9 185.5,317.2 186.1,292.5 186.7,236.2 187.3,341.1 187.9,305.4 188.5,235.7 189.1,356.5 189.7,238.0 190.3,327.3 190.9,302.1 191.5,322.2 192.1,230.6 192.7,354.9 193.3,212.4 193.9,315.6 194.5,273.5 195.1,291.7 195.7,289.8 196.3,283.7 196.9,262.6 197.5,321.5 198.1,278.4 198.7,283.3 199.3,283.8 199.9,301.2 200.5,327.9 201.1,216.4 201.7,304.9 202.3,275.7 202.9,301.2 203.5,275.4 204.1,292.3 204.7,281.8 205.3,305.5 205.9,303.8 206.6,248.8 207.2,296.5 207.8,303.1 208.4,340.5 209.0,210.4 209.6,312.1 210.2,300.2 210.8,261.9 211.4,318.9 212.0,255.0 212.6,338.7 213.2,254.4 213.8,279.6 214.4,307.3 215.0,277.4 215.6,292.9 216.2,289.7 216.8,234.5 217.4,321.9 218.0,272.7 218.6,289.4 219.2,299.9 219.8,228.6 220.4,283.0 221.1,270.7 221.7,312.8 222.3,254.1 222.9,330.0 223.5,277.7 224.0,315.3 224.6,244.4 225.2,316.2 225.8,209.9 226.4,343.9 227.0,222.1 227.6,298.9 228.2,292.3 228.9,231.6 229.5,289.8 230.1,308.7 230.7,303.6 231.2,187.0 231.8,312.6 232.4,300.1 233.0,299.6 233.6,216.7 234.2,287.0 234.8,288.4 235.4,323.4 236.0,186.4 236.6,296.8 237.2,291.6 237.9,240.3 238.5,291.2 239.1,303.7 239.7,290.9 240.3,214.0 240.9,284.2 241.5,290.0 242.1,303.6 242.7,198.0 243.3,303.5 243.9,298.2 244.5,223.1 245.1,310.6 245.7,231.0 246.3,306.0 246.9,280.6 247.5,270.2 248.1,283.8 248.8,213.3 249.4,304.6 250.0,314.0 250.6,271.2 251.2,194.7 251.9,250.6 252.5,306.8 253.1,238.6 253.7,290.4 254.3,236.7 254.9,305.7 255.5,272.8 256.1,252.4 256.7,301.8 257.3,180.7 257.9,322.1 258.5,198.3 259.1,260.8 259.7,305.1 260.4,245.2 261.0,282.7 261.6,197.5 262.2,349.6 263.1,241.2 263.7,242.3 264.5,271.1 265.4,242.0 266.1,298.2 267.1,267.9 267.7,214.5 268.3,176.9 269.1,310.0 269.8,256.7 270.5,240.8 271.1,169.5 271.7,295.4 272.3,215.8 272.9,297.2 273.5,209.4 274.1,268.6 274.7,283.9 275.4,196.2 276.0,290.1 276.6,280.8 277.2,266.4 277.8,163.9 278.4,273.3 279.0,263.0 279.6,238.6 280.2,278.5 280.8,167.1 281.4,270.6 282.0,272.6 282.6,289.7 283.2,131.0 283.8,342.5 284.4,132.0 285.0,288.1 285.6,202.3 286.2,283.9 286.8,202.8 287.4,284.3 288.0,200.1 288.6,282.5 289.2,199.2 289.8,268.7 290.4,209.9 291.0,249.4 291.6,227.6 292.2,246.2 292.7,197.4 293.3,282.4 293.9,190.9 294.5,282.0 295.1,189.8 295.7,252.6 296.3,193.1 296.9,276.8 297.5,193.2 298.1,258.8 298.7,203.9 299.3,251.3 299.9,217.8 300.5,249.3 301.1,201.5 301.7,259.4 302.3,179.8 302.9,273.1 303.5,182.2 304.1,247.7 304.7,198.6 305.3,257.0 305.9,197.5 306.5,273.5 307.1,180.5 307.7,261.2 308.3,180.4 308.9,254.9 309.5,197.7 310.1,270.0 310.7,130.4 311.3,251.2 311.9,269.0 312.6,132.8 313.2,258.5 313.8,249.8 314.4,177.7 315.0,254.7 315.6,269.1 316.2,173.4 316.8,240.8 317.4,121.9 318.0,318.8 318.6,104.7 319.1,265.0 319.7,235.8 320.3,200.4 320.9,235.5 321.6,145.0 322.2,263.0 322.8,236.6 323.4,254.8 324.0,110.4 324.6,249.6 325.2,167.1 325.8,261.2 326.4,147.4 327.0,250.4 327.6,192.2 328.2,234.7 328.8,163.5 329.4,257.5 330.0,177.8 330.6,241.4 331.2,249.6 331.8,173.6 332.4,245.1 333.0,162.8 333.6,256.6 334.2,174.7 334.8,238.6 335.4,175.5 336.0,238.4 336.6,172.9 337.2,256.4 337.8,87.5 338.4,324.7 339.0,88.2 339.6,257.1 340.2,254.9 340.8,144.3 341.4,267.4 342.0,185.1 342.6,274.0 343.2,259.3 343.9,198.1 344.5,215.5 345.1,210.1 345.7,271.8 346.3,276.2 346.9,269.1 347.5,149.6 348.1,276.7 348.7,229.5 349.3,261.7 349.9,289.4 350.5,219.8 351.1,292.8 351.7,205.1 352.3,292.6 352.9,289.1 353.5,289.2 354.1,211.7 354.7,293.2 355.3,307.7 356.0,222.6 356.6,348.8 357.2,213.8 357.8,303.3 358.4,284.6 359.0,295.5 359.6,319.4 360.3,257.0 360.9,323.7 361.5,302.2 362.1,323.7 362.7,242.6 363.3,333.9 363.9,325.9 364.6,273.8 365.2,335.9 365.8,293.1 366.4,348.8 367.0,330.2 367.7,298.3 368.2,340.9 368.8,309.1 369.4,354.8 370.0,353.6 370.7,302.2 371.3,373.9 371.9,311.1 372.5,374.7 373.1,308.9 373.7,359.6 374.3,363.0 375.0,333.0 375.5,360.4 376.1,364.1 376.7,369.0 377.3,343.5 377.9,386.0 378.5,354.1 379.1,373.4 379.7,361.9 380.3,374.4 380.9,369.6 381.5,361.1 382.1,360.9 382.7,380.1 383.3,396.0 384.0,383.5 384.6,380.1 385.2,396.0 385.8,385.3 386.4,385.3 387.0,373.3 387.6,373.3 388.1,360.7 388.8,361.3 389.4,396.0 390.0,396.0 390.6,396.0 391.2,373.0 391.8,373.0 392.4,387.7 393.0,382.7 393.3,396.0 393.9,376.8 394.5,387.5 395.1,387.7 395.7,391.0 396.3,373.3 396.9,391.0 397.6,381.3 398.2,382.5 398.8,381.3 399.4,367.9 400.0,368.7 400.6,378.9 401.2,363.1 401.7,377.0 402.3,358.6 402.9,364.4 403.5,354.6 404.1,360.4 404.7,331.8 405.3,359.6 405.9,350.1 406.5,357.2 407.1,325.7 407.7,345.6 408.3,357.3 408.9,302.5 409.5,343.7 410.1,324.5 410.7,333.9 411.3,343.4 412.0,280.0 412.5,340.9 413.2,303.9 413.8,336.6 414.4,328.2 415.0,324.5 415.6,251.2 416.2,362.1 416.8,250.6 417.4,323.5 418.0,323.7 418.6,238.7 419.2,311.5 419.8,321.2 420.4,300.2 421.0,236.2 421.6,292.5 422.2,305.1 422.8,307.3 423.4,212.4 424.0,294.8 424.6,288.7 425.2,250.5 425.8,290.2 426.4,207.3 427.0,287.4 427.6,289.1 428.2,287.4 428.8,171.0 429.4,269.9 430.0,289.6 430.6,286.4 431.2,155.1 431.8,273.8 432.4,217.1 433.0,260.7 433.6,215.0 434.2,255.1 434.8,286.2 435.4,138.9 436.0,260.0 436.6,186.3 437.2,255.4 437.8,187.2 438.4,255.4 439.0,257.8 439.6,174.6 440.2,257.1 440.8,225.9 441.4,117.8 442.0,325.3 442.6,78.0 443.2,254.8 443.8,240.8 444.5,120.4 445.1,257.0 445.7,229.2 446.4,133.2 447.0,258.1 447.6,230.1 448.2,240.7 448.8,86.2 449.4,257.0 450.0,163.0 450.6,243.9 451.2,247.1 451.8,175.3 452.4,194.7 453.0,232.2 453.6,243.2 454.2,185.1 454.8,244.6 455.4,104.1 456.0,315.3 456.6,117.9 457.2,246.1 457.8,184.9 458.4,245.8 459.0,252.3 459.6,121.0 460.2,331.4 460.8,173.0 461.4,173.6 462.0,268.1 462.6,247.6 463.2,127.7 463.8,237.6 464.4,192.1 465.0,251.6 465.6,254.3 466.2,267.4 466.8,115.2 467.4,250.9 468.0,258.1 468.6,179.8 469.2,269.9 469.8,148.2 470.4,310.5 471.0,120.8 471.6,252.0 472.2,273.4 472.8,166.2 473.4,272.8 474.0,258.9 474.6,124.9 475.2,273.8 475.8,246.4 476.4,276.1 477.0,128.1 477.6,260.2 478.2,200.7 478.8,258.8 479.4,258.4 480.1,181.2 480.8,220.6 481.4,254.2 482.0,190.0 482.6,280.8 483.2,263.6 483.8,263.8 484.4,133.4 485.0,269.1 485.6,262.4 486.2,168.7 486.8,264.5 487.4,270.3 488.0,282.3 488.6,119.4 489.2,338.9 489.8,167.0 490.4,251.8 491.0,286.5 491.6,235.8 492.2,202.8 492.8,217.7 493.4,270.1 494.0,272.1 494.6,206.0 495.3,294.2 496.0,237.9 496.8,270.9 497.4,179.1 498.1,183.8 498.7,343.2 499.4,186.9 500.2,308.5 501.1,236.3 501.7,234.9 502.4,197.0 503.2,294.3 504.1,222.1 504.7,267.3 505.4,188.1 506.0,279.5 506.6,216.9 507.2,298.7 507.8,207.3 508.4,297.2 509.0,217.1 509.6,294.0 510.2,263.4 510.8,217.5 511.4,295.0 512.1,193.7 512.7,292.4 513.3,272.7 513.9,293.9 514.4,223.7 515.0,273.9 515.6,235.4 516.2,275.5 516.8,178.2 517.4,295.7 518.0,269.9 518.7,187.6 519.3,296.5 519.9,303.0 520.5,274.8 521.1,195.9 521.7,264.8 522.3,266.5 522.9,268.5 523.5,307.6 524.0,269.0 524.7,202.5 525.3,288.8 525.8,245.1 526.4,289.5 527.0,280.5 527.7,222.2 528.3,281.8 528.9,293.4 529.5,286.9 530.1,192.9 530.7,303.5 531.3,284.0 531.9,291.6 532.5,238.1 533.1,306.3 533.7,199.9 534.3,285.5 534.9,268.8 535.5,282.2 536.1,289.4 536.7,301.9 537.3,183.6 537.9,270.5 538.5,295.3 539.1,280.3 539.7,305.4 540.3,191.4 540.9,281.4 541.5,318.4 542.1,301.9 542.7,192.4 543.3,310.9 543.9,251.8 544.5,288.7 545.1,302.6 545.7,251.5 546.3,303.2 546.9,211.1 547.5,310.3 548.1,291.2 548.7,304.2 549.3,203.4 549.9,323.0 550.5,268.6 551.2,239.4 551.8,322.6 552.4,286.4 553.0,302.7 553.6,210.9 554.2,314.9 554.8,243.9 555.4,325.6 556.0,286.9 556.6,227.2 557.2,330.5 557.8,282.7 558.4,312.1 559.0,268.5 559.6,313.2 560.2,220.5 560.8,340.5 561.4,205.3 562.0,318.0 562.6,315.0 563.2,302.5 563.8,211.4 564.5,300.1 565.1,303.1 565.7,254.2 566.3,330.0 566.9,295.9 567.6,250.3 568.2,308.8 568.8,306.9 569.5,235.4 570.1,303.7 570.7,312.2 571.3,340.4 571.9,246.6 572.5,314.8 573.1,234.8 573.7,290.8 574.3,275.7 574.9,296.5 575.4,270.2 576.0,310.6 576.6,315.5 577.2,261.9 577.8,300.1 578.5,274.8 579.1,283.8 579.7,285.2 580.3,300.1 580.9,277.2 581.5,306.1 582.1,276.6 582.7,290.0 583.3,283.3 583.9,307.5 584.5,273.1 585.1,332.5 585.7,305.3 586.3,224.6 586.9,375.9 587.5,237.3 588.1,323.7 588.7,267.4 589.3,333.8 589.9,233.1 590.5,361.6 591.1,236.3 591.7,361.7 592.3,255.4 592.9,297.7 593.5,291.4 594.1,313.1 594.7,280.9 595.3,290.0 595.9,314.6 596.5,288.2 597.1,296.8 597.7,285.7 598.3,324.4 598.9,248.2 599.5,350.5 600.1,248.3 600.7,319.0 601.3,281.4 601.9,322.4 602.5,293.6 603.1,239.8 603.7,322.9 604.3,277.8 604.9,318.1 605.5,298.4 606.1,267.0 606.7,335.4 607.3,317.8 607.9,233.6 608.5,306.5 609.1,267.0 609.7,303.4 610.3,284.4 610.9,287.0 611.5,282.3 612.1,326.9 612.7,273.1 613.3,286.8 613.9,287.0 614.5,304.6 615.1,291.5 615.7,301.1 616.3,274.4 616.8,322.5 617.4,252.7 618.0,343.0 618.6,254.9 619.2,325.6 619.8,266.4 620.4,325.4 621.0,258.1 621.6,319.7 622.2,320.1 622.8,231.9 623.4,314.1 624.0,285.5 624.6,301.6 625.2,319.3 625.9,263.5 626.5,301.7 627.1,301.1 627.7,288.5 628.3,279.2 628.9,315.6 629.5,343.6 630.1,242.4 630.7,345.3 631.3,248.1 631.9,365.3 632.5,238.1 633.1,320.9 633.7,320.8 634.3,317.9 634.9,253.4 635.5,348.3 636.1,311.5 636.8,293.5 637.4,320.0 638.0,326.5 638.6,329.5 639.2,306.1 639.8,340.3 640.4,279.1 641.0,315.9 641.6,350.0 642.2,343.4 642.8,274.4 643.4,329.9 644.0,336.4 644.6,315.9 645.2,380.8 645.8,263.0 646.4,355.2 647.0,352.0 647.6,342.9 648.2,331.8 648.8,351.8 649.4,311.4 650.0,331.9 650.6,343.9 651.2,362.4 651.8,326.1 652.4,358.3 653.0,336.5 653.6,357.6 654.2,351.7 654.8,360.0 655.4,348.0 656.0,349.2 656.6,359.8 657.2,362.7 657.8,347.2 658.4,355.9 659.0,363.7 659.6,347.1 660.2,373.4 660.8,374.9 661.4,351.9 662.0,374.9 662.6,376.8 663.2,354.8 663.8,367.1 664.4,369.0 665.0,374.7 665.6,369.6 666.2,377.7 666.8,383.6 667.4,371.9 668.0,375.8 668.6,386.7 669.2,376.9 669.8,382.3 670.4,387.5 671.0,376.9 671.6,396.0 672.2,391.0 672.8,388.3 673.4,379.0 674.0,396.0 674.6,396.0 675.2,396.0 675.8,379.0 676.4,387.5 677.0,382.4 677.6,378.9 678.2,376.5 678.8,387.5 679.4,396.0 680.0,387.5" fill="none" stroke="#2f80ed" stroke-width="2.5"/>
<line x1="278" y1="96" x2="302" y2="96" stroke="#2f80ed" stroke-width="3"/>
<text x="308.0" y="100.0" font-family="Arial, Helvetica, sans-serif" font-size="12" fill="#1f2933" text-anchor="start" font-weight="400">||dx/dt|| / peak</text>
<rect x="720" y="96" width="218" height="62" rx="5" fill="#f8fafc" stroke="#d9e2ec"/>
<text x="732.0" y="118.0" font-family="Arial, Helvetica, sans-serif" font-size="12" fill="#52616b" text-anchor="start" font-weight="700">Peak joint speed</text>
<text x="732.0" y="142.0" font-family="Arial, Helvetica, sans-serif" font-size="18" fill="#1f2933" text-anchor="start" font-weight="700">33.5 deg/s</text>
<text x="844.0" y="142.0" font-family="Arial, Helvetica, sans-serif" font-size="10" fill="#52616b" text-anchor="start" font-weight="400">t=21.52s</text>
<rect x="720" y="178" width="218" height="62" rx="5" fill="#f8fafc" stroke="#d9e2ec"/>
<text x="732.0" y="200.0" font-family="Arial, Helvetica, sans-serif" font-size="12" fill="#52616b" text-anchor="start" font-weight="700">Peak TCP speed</text>
<text x="732.0" y="224.0" font-family="Arial, Helvetica, sans-serif" font-size="18" fill="#1f2933" text-anchor="start" font-weight="700">63.0 mm/s</text>
<text x="844.0" y="224.0" font-family="Arial, Helvetica, sans-serif" font-size="10" fill="#52616b" text-anchor="start" font-weight="400">t=15.34s</text>
<rect x="720" y="260" width="218" height="62" rx="5" fill="#f8fafc" stroke="#d9e2ec"/>
<text x="732.0" y="282.0" font-family="Arial, Helvetica, sans-serif" font-size="12" fill="#52616b" text-anchor="start" font-weight="700">Interpretation</text>
<text x="732.0" y="306.0" font-family="Arial, Helvetica, sans-serif" font-size="18" fill="#1f2933" text-anchor="start" font-weight="700">shape, not units</text>
<text x="844.0" y="306.0" font-family="Arial, Helvetica, sans-serif" font-size="10" fill="#52616b" text-anchor="start" font-weight="400">separate normalization</text>
<text x="379.0" y="440.0" font-family="Arial, Helvetica, sans-serif" font-size="13" fill="#1f2933" text-anchor="middle" font-weight="400">time (s)</text>
<text x="22.0" y="237.0" font-family="Arial, Helvetica, sans-serif" font-size="13" fill="#1f2933" text-anchor="middle" font-weight="400">normalized speed</text>
</svg>
